<svg xmlns="http://www.w3.org/2000/svg" viewBox="0 0 192 192" width="100%" height="100%">
  <rect width="192" height="192" rx="48" fill="#FF5200" />
  <path d="M60 45 h50 a15 15 0 0 1 15 15 v70 a15 15 0 0 1 -15 15 h-50 a15 15 0 0 1 -15 -15 v-70 a15 15 0 0 1 15 -15 z" fill="none" stroke="#FFFFFF" stroke-width="12" stroke-linecap="round" stroke-linejoin="round"/>
  <path d="M125 70 h15 a8 8 0 0 1 8 8 v35 a8 8 0 0 1 -8 8 h-15" fill="none" stroke="#FFFFFF" stroke-width="10" stroke-linecap="round"/>
  <circle cx="85" cy="80" r="10" fill="#FFFFFF" />
  <path d="M85 102 v20 M70 112 h30" fill="none" stroke="#FFFFFF" stroke-width="9" stroke-linecap="round"/>
</svg>
